PathFileType	4	(X/Y/Z)	C:\Users\86182\Documents\cortex\Trimmed_M1_L11.trc
DataRate	CameraRate	NumFrames	NumMarkers	Units	OrigDataRate	OrigDataStartFrame	OrigNumFrames
100.00	100.00	       98	2	mm	100.00	721	       901
Frame#	Time	gripper			box			
		X1	Y1	Z1	X2	Y2	Z2	

721	7.200	199.47919	195.93874	292.89886	201.18370	194.84615	156.40372	
722	7.210	199.45483	195.94826	292.88574	201.18370	194.84615	156.40372	
723	7.220	199.45984	195.92987	292.91388	201.18370	194.84615	156.40372	
724	7.230	199.48442	195.93288	292.91000	201.18370	194.84615	156.40372	
725	7.240	199.48172	195.94348	292.90576	201.18370	194.84615	156.40372	
726	7.250	199.47836	195.93639	292.89975	201.18370	194.84615	156.40372	
727	7.260	199.47308	195.93559	292.88788	201.18370	194.84615	156.40372	
728	7.270	199.47713	195.94275	292.88733	201.18370	194.84615	156.40372	
729	7.280	199.52875	195.96399	292.88754	201.18370	194.84615	156.40372	
730	7.290	199.46568	195.93475	292.88370	201.18370	194.84615	156.40372	
731	7.300	199.49875	195.94089	292.89816	201.18370	194.84615	156.40372	
732	7.310	199.48878	195.95255	292.89835	201.18370	194.84615	156.40372	
733	7.320	199.50345	195.95560	292.88733	201.18370	194.84615	156.40372	
734	7.330	199.46123	195.93689	292.90671	201.18370	194.84615	156.40372	
735	7.340	199.47639	195.95667	292.90070	201.18370	194.84615	156.40372	
736	7.350	199.46513	195.95024	292.89337	201.18370	194.84615	156.40372	
737	7.360	199.46210	195.93216	292.89297	201.18370	194.84615	156.40372	
738	7.370	199.45076	195.93016	292.89963	201.18370	194.84615	156.40372	
739	7.380	199.47856	195.95578	292.87521	201.18370	194.84615	156.40372	
740	7.390	199.48332	195.95856	292.89426	201.18370	194.84615	156.40372	
741	7.400	199.46465	195.94688	292.88971	201.18370	194.84615	156.40372	
742	7.410	199.44875	195.94170	292.89935	201.18370	194.84615	156.40372	
743	7.420	199.46977	195.95390	292.88876	201.18370	194.84615	156.40372	
744	7.430	199.49799	195.97195	292.88666	201.18370	194.84615	156.40372	
745	7.440	199.47131	195.95680	292.87967	201.18370	194.84615	156.40372	
746	7.450	199.47151	195.94673	292.88269	201.18370	194.84615	156.40372	
747	7.460	199.47101	195.95769	292.87708	201.18370	194.84615	156.40372	
748	7.470	199.45999	195.95039	292.89337	201.18370	194.84615	156.40372	
749	7.480	199.47261	195.95552	292.89059	201.18370	194.84615	156.40372	
750	7.490	199.47336	195.97229	292.87384	201.18370	194.84615	156.40372	
751	7.500	199.44791	195.92696	292.89563	201.18370	194.84615	156.40372	
752	7.510	199.44675	195.95924	292.88843	201.18370	194.84615	156.40372	
753	7.520	199.45229	195.95912	292.88776	201.18370	194.84615	156.40372	
754	7.530	199.46457	195.93810	292.88852	201.18370	194.84615	156.40372	
755	7.540	199.43372	195.94061	292.89059	201.18370	194.84615	156.40372	
756	7.550	199.48808	195.93781	292.89453	201.18370	194.84615	156.40372	
757	7.560	199.46494	195.95320	292.89133	201.18370	194.84615	156.40372	
758	7.570	199.49719	195.95105	292.88120	201.18370	194.84615	156.40372	
759	7.580	199.46970	195.94464	292.88916	201.18370	194.84615	156.40372	
760	7.590	199.45708	195.95384	292.89001	201.18370	194.84615	156.40372	
761	7.600	199.46138	195.95009	292.86484	201.18370	194.84615	156.40372	
762	7.610	199.46689	195.95987	292.86923	201.18370	194.84615	156.40372	
763	7.620	199.48235	195.96613	292.88501	201.18370	194.84615	156.40372	
764	7.630	199.46561	195.95152	292.87540	201.18370	194.84615	156.40372	
765	7.640	199.47775	195.96045	292.86795	201.18370	194.84615	156.40372	
766	7.650	199.44368	195.93394	292.88904	201.18370	194.84615	156.40372	
767	7.660	199.42567	195.92043	292.90353	201.18225	194.84952	156.39436	
768	7.670	199.45125	195.93929	292.90720	201.18370	194.84615	156.40372	
769	7.680	199.44339	195.93097	292.89764	201.18370	194.84615	156.40372	
770	7.690	199.46536	195.94109	292.89313	201.18370	194.84615	156.40372	
771	7.700	199.42244	195.93536	292.89288	201.18370	194.84615	156.40372	
772	7.710	199.41209	195.90407	292.88373	201.18370	194.84615	156.40372	
773	7.720	199.43430	195.92659	292.89832	201.18370	194.84615	156.40372	
774	7.730	199.49092	195.97098	292.86945	201.18370	194.84615	156.40372	
775	7.740	199.45930	195.96303	292.85361	201.18370	194.84615	156.40372	
776	7.750	199.46437	195.94104	292.88644	201.18370	194.84615	156.40372	
777	7.760	199.47816	195.95155	292.89523	201.18370	194.84615	156.40372	
778	7.770	199.51372	195.95856	292.89166	201.18370	194.84615	156.40372	
779	7.780	199.46332	195.93370	292.89468	201.18370	194.84615	156.40372	
780	7.790	199.47687	195.95076	292.88379	201.18370	194.84615	156.40372	
781	7.800	199.51563	195.96773	292.88428	201.18370	194.84615	156.40372	
782	7.810	199.46091	195.95387	292.87527	201.18370	194.84615	156.40372	
783	7.820	199.43921	195.92781	292.89407	201.18370	194.84615	156.40372	
784	7.830	199.49510	195.95192	292.88562	201.18370	194.84615	156.40372	
785	7.840	199.49518	195.95403	292.88617	201.18370	194.84615	156.40372	
786	7.850	199.46471	195.94180	292.89124	201.18370	194.84615	156.40372	
787	7.860	199.45171	195.94586	292.87909	201.18370	194.84615	156.40372	
788	7.870	199.44887	195.95535	292.88608	201.18370	194.84615	156.40372	
789	7.880	199.47165	195.94164	292.88419	201.18370	194.84615	156.40372	
790	7.890	199.45549	195.95813	292.87701	201.18370	194.84615	156.40372	
791	7.900	199.43779	195.94391	292.90125	201.18370	194.84615	156.40372	
792	7.910	199.48096	195.97954	292.89264	201.18370	194.84615	156.40372	
793	7.920	199.45435	195.95435	292.88870	201.18370	194.84615	156.40372	
794	7.930	199.44592	195.94447	292.88470	201.18370	194.84615	156.40372	
795	7.940	199.42809	195.93950	292.88742	201.18370	194.84615	156.40372	
796	7.950	199.44896	195.94312	292.88858	201.18370	194.84615	156.40372	
797	7.960	199.46614	195.96065	292.86728	201.18370	194.84615	156.40372	
798	7.970	199.48215	195.95988	292.88336	201.18370	194.84615	156.40372	
799	7.980	199.48236	195.95186	292.88696	201.18370	194.84615	156.40372	
800	7.990	199.43195	195.92911	292.89041	201.18370	194.84615	156.40372	
801	8.000	199.46150	195.94937	292.87448	201.18370	194.84615	156.40372	
802	8.010	199.45000	195.92529	292.90094	201.18370	194.84615	156.40372	
803	8.020	199.47514	195.93420	292.88504	201.18370	194.84615	156.40372	
804	8.030	199.44821	195.96353	292.87448	201.18370	194.84615	156.40372	
805	8.040	199.49269	195.97504	292.88461	201.18370	194.84615	156.40372	
806	8.050	199.46500	195.93983	292.89001	201.18370	194.84615	156.40372	
807	8.060	199.44708	195.93385	292.87491	201.18370	194.84615	156.40372	
808	8.070	199.46179	195.94531	292.88788	201.18370	194.84615	156.40372	
809	8.080	199.44370	195.92564	292.88617	201.18370	194.84615	156.40372	
810	8.090	199.44510	195.94919	292.87741	201.18370	194.84615	156.40372	
811	8.100	199.43620	195.93590	292.89084	201.18370	194.84615	156.40372	
812	8.110	199.50633	195.94112	292.89688	201.18370	194.84615	156.40372	
813	8.120	199.42509	195.91699	292.89990	201.18370	194.84615	156.40372	
814	8.130	199.45534	195.93448	292.90048	201.18370	194.84615	156.40372	
815	8.140	199.41792	195.91101	292.89011	201.18370	194.84615	156.40372	
816	8.150	199.49542	195.95319	292.88876	201.18370	194.84615	156.40372	
817	8.160	199.45451	195.94426	292.89175	201.18370	194.84615	156.40372	
818	8.170	199.42645	195.92723	292.89697	201.18370	194.84615	156.40372	
